<mxfile host="app.diagrams.net" modified="2024-06-12T00:38:39.512Z" agent="Mozilla/5.0 (Windows NT 10.0; Win64; x64) AppleWebKit/537.36 (KHTML, like Gecko) Chrome/123.0.0.0 Safari/537.36 OPR/109.0.0.0 (Edition Yx GX 02)" version="24.2.2" etag="rpecDiznG4sCgJVZifj3" type="github">
  <diagram name="Страница — 1" id="4g_iGCJx5Nl5havKxxvF">
    <mxGraphModel>
      <root>
        <mxCell id="0" />
        <mxCell id="1" parent="0" />
      </root>
    </mxGraphModel>
  </diagram>
</mxfile>
